<svg width="1200" height="1200" viewBox="0 0 1200 1200" fill="none" xmlns="http://www.w3.org/2000/svg">
  <defs>
    <linearGradient id="bgThree" x1="0" y1="0" x2="0" y2="1200" gradientUnits="userSpaceOnUse">
      <stop stop-color="#F8FBFF"/>
      <stop offset="1" stop-color="#EAF1FB"/>
    </linearGradient>
    <linearGradient id="greenStrip" x1="120" y1="0" x2="1080" y2="0" gradientUnits="userSpaceOnUse">
      <stop stop-color="#2FA14B"/>
      <stop offset="1" stop-color="#238A3A"/>
    </linearGradient>
  </defs>

  <rect width="1200" height="1200" fill="url(#bgThree)"/>
  <rect x="120" y="100" width="960" height="180" rx="30" fill="#142963"/>
  <text x="170" y="200" fill="white" font-size="70" font-family="Arial, sans-serif" font-weight="800">WEEKEND PICKS</text>

  <rect x="120" y="330" width="960" height="700" rx="36" fill="white" stroke="#D8E2F1" stroke-width="4"/>

  <rect x="170" y="390" width="860" height="72" rx="16" fill="url(#greenStrip)"/>
  <text x="220" y="438" fill="white" font-size="36" font-family="Arial, sans-serif" font-weight="700">Arts, music, and city culture</text>

  <g>
    <rect x="170" y="510" width="260" height="220" rx="20" fill="#EEF4FF"/>
    <rect x="470" y="510" width="260" height="220" rx="20" fill="#EEF4FF"/>
    <rect x="770" y="510" width="260" height="220" rx="20" fill="#EEF4FF"/>

    <circle cx="300" cy="620" r="62" fill="#2FA14B" fill-opacity="0.78"/>
    <rect x="540" y="565" width="120" height="110" rx="12" fill="#142963" fill-opacity="0.78"/>
    <polygon points="900,560 980,690 820,690" fill="#2FA14B" fill-opacity="0.8"/>
  </g>

  <rect x="170" y="780" width="860" height="200" rx="24" fill="#142963" fill-opacity="0.06"/>
  <text x="220" y="865" fill="#142963" font-size="48" font-family="Arial, sans-serif" font-weight="700">Find what to do near you</text>
  <text x="220" y="925" fill="#4A5E86" font-size="34" font-family="Arial, sans-serif">Updated every Friday</text>
</svg>
