<svg width="1200" height="1200" viewBox="0 0 1200 1200" fill="none" xmlns="http://www.w3.org/2000/svg">
  <defs>
    <linearGradient id="bgFive" x1="0" y1="0" x2="0" y2="1200" gradientUnits="userSpaceOnUse">
      <stop stop-color="#0F2550"/>
      <stop offset="1" stop-color="#07142E"/>
    </linearGradient>
    <linearGradient id="sunset" x1="200" y1="380" x2="980" y2="880" gradientUnits="userSpaceOnUse">
      <stop stop-color="#2FA14B"/>
      <stop offset="1" stop-color="#5BC2D6"/>
    </linearGradient>
  </defs>

  <rect width="1200" height="1200" fill="url(#bgFive)"/>
  <text x="110" y="165" fill="white" font-size="68" font-family="Arial, sans-serif" font-weight="800">WEEKEND TRIP</text>
  <text x="110" y="230" fill="#CAE0FF" font-size="38" font-family="Arial, sans-serif">2 nights by the coast</text>

  <rect x="110" y="300" width="980" height="790" rx="36" fill="#0D1E43" stroke="#2A437A" stroke-width="4"/>

  <rect x="170" y="380" width="860" height="430" rx="28" fill="url(#sunset)"/>
  <circle cx="840" cy="560" r="84" fill="#FFD778" fill-opacity="0.92"/>
  <path d="M170 700C250 620 330 660 410 610C500 555 590 590 680 540C770 492 860 540 1030 460V810H170V700Z" fill="#124A8A" fill-opacity="0.58"/>
  <path d="M170 745C290 680 410 710 530 650C650 593 770 628 890 575C940 553 985 540 1030 530V810H170V745Z" fill="#0B2E66" fill-opacity="0.62"/>

  <rect x="190" y="860" width="430" height="165" rx="20" fill="white" fill-opacity="0.94"/>
  <text x="230" y="940" fill="#142963" font-size="78" font-family="Arial, sans-serif" font-weight="900">25%</text>
  <text x="230" y="996" fill="#2B3D61" font-size="34" font-family="Arial, sans-serif" font-weight="700">OFF HOTELS</text>

  <rect x="660" y="880" width="350" height="120" rx="20" fill="#2FA14B"/>
  <text x="740" y="955" fill="white" font-size="42" font-family="Arial, sans-serif" font-weight="700">Book Now</text>
</svg>
