<svg width="1200" height="1200" viewBox="0 0 1200 1200" fill="none" xmlns="http://www.w3.org/2000/svg">
  <defs>
    <linearGradient id="bgSix" x1="1200" y1="0" x2="0" y2="1200" gradientUnits="userSpaceOnUse">
      <stop stop-color="#F9FCFF"/>
      <stop offset="1" stop-color="#E8F0FB"/>
    </linearGradient>
    <linearGradient id="chipSix" x1="170" y1="0" x2="1030" y2="0" gradientUnits="userSpaceOnUse">
      <stop stop-color="#142963"/>
      <stop offset="1" stop-color="#2FA14B"/>
    </linearGradient>
  </defs>

  <rect width="1200" height="1200" fill="url(#bgSix)"/>

  <rect x="120" y="110" width="960" height="170" rx="28" fill="url(#chipSix)"/>
  <text x="170" y="210" fill="white" font-size="64" font-family="Arial, sans-serif" font-weight="800">SMART HOME DAYS</text>

  <rect x="120" y="320" width="960" height="760" rx="34" fill="white" stroke="#D0DDF0" stroke-width="4"/>

  <g>
    <rect x="190" y="410" width="380" height="300" rx="24" fill="#F2F7FF"/>
    <rect x="650" y="410" width="360" height="300" rx="24" fill="#F2F7FF"/>
    <rect x="190" y="760" width="820" height="250" rx="24" fill="#F7FBFF"/>

    <circle cx="380" cy="560" r="90" fill="#2FA14B" fill-opacity="0.22"/>
    <rect x="310" y="500" width="140" height="120" rx="18" fill="#2FA14B"/>
    <rect x="730" y="500" width="210" height="36" rx="12" fill="#142963" fill-opacity="0.78"/>
    <rect x="730" y="560" width="180" height="36" rx="12" fill="#142963" fill-opacity="0.55"/>
    <rect x="730" y="620" width="140" height="36" rx="12" fill="#142963" fill-opacity="0.4"/>
  </g>

  <text x="210" y="855" fill="#142963" font-size="52" font-family="Arial, sans-serif" font-weight="800">Bundle Offers</text>
  <text x="210" y="925" fill="#41577F" font-size="34" font-family="Arial, sans-serif">Save more on connected devices</text>

  <rect x="760" y="868" width="220" height="100" rx="18" fill="#2FA14B"/>
  <text x="805" y="930" fill="white" font-size="34" font-family="Arial, sans-serif" font-weight="700">Explore</text>
</svg>
